<svg xmlns="http://www.w3.org/2000/svg" width="80" height="80" viewBox="0 0 80 80">
  <g id="Gruppe_712" data-name="Gruppe 712" transform="translate(-16.34 589.129)">
    <path id="Pfad_6" data-name="Pfad 6" d="M350.74-239.742h3.2l-1.607-4.787Z" transform="translate(-285.564 -293.815)" fill="#fff"/>
    <path id="Pfad_7" data-name="Pfad 7" d="M16.34-589.129v80h80v-80Zm45.41,17.944h3.7v14.978H73.3v2.971H61.75ZM47.73-559.554a9.722,9.722,0,0,0-2.662-1.183,18.949,18.949,0,0,1-3.046-1.226q-3.058-1.652-3.057-4.45a4.33,4.33,0,0,1,.82-2.595,5.345,5.345,0,0,1,2.355-1.781,8.855,8.855,0,0,1,3.446-.642,8.08,8.08,0,0,1,3.427.7,5.465,5.465,0,0,1,2.336,1.966,5.15,5.15,0,0,1,.833,2.885h-3.7a2.418,2.418,0,0,0-.777-1.917,3.191,3.191,0,0,0-2.183-.683,3.409,3.409,0,0,0-2.108.573,1.808,1.808,0,0,0-.751,1.51,1.73,1.73,0,0,0,.882,1.467,9.978,9.978,0,0,0,2.595,1.11,11.2,11.2,0,0,1,4.6,2.355,4.688,4.688,0,0,1,1.443,3.5,4.32,4.32,0,0,1-1.763,3.656,7.717,7.717,0,0,1-4.746,1.325,9.164,9.164,0,0,1-3.772-.758,5.962,5.962,0,0,1-2.595-2.078,5.319,5.319,0,0,1-.893-3.057h3.71q0,2.97,3.551,2.971a3.458,3.458,0,0,0,2.059-.536,1.762,1.762,0,0,0,.734-1.5A1.9,1.9,0,0,0,47.73-559.554Zm4.506,18.365h-5.5v14.953h-3.7v-14.953H37.615v-3h14.62Zm18.85,14.953-1.245-3.7H63.356l-1.232,3.7H58.192l6.681-17.949H68.3l6.718,17.949Z" fill="#fff"/>
  </g>
</svg>
